<svg width="96" height="20" viewBox="0 0 96 20" fill="none" xmlns="http://www.w3.org/2000/svg">
<path d="M4.56146 19H0.987244V1.86719H10.8076V4.84375H4.56146V9.26172H10.374V12.2266H4.56146V19Z" fill="white"/>
<path d="M16.7255 12.4258C16.7255 13.7227 16.9365 14.7031 17.3583 15.3672C17.788 16.0312 18.4833 16.3633 19.4443 16.3633C20.3974 16.3633 21.081 16.0352 21.4951 15.3789C21.9169 14.7148 22.1279 13.7305 22.1279 12.4258C22.1279 11.1289 21.9169 10.1562 21.4951 9.50781C21.0732 8.85938 20.3818 8.53516 19.4208 8.53516C18.4677 8.53516 17.7802 8.85938 17.3583 9.50781C16.9365 10.1484 16.7255 11.1211 16.7255 12.4258ZM25.7841 12.4258C25.7841 14.5586 25.2216 16.2266 24.0966 17.4297C22.9716 18.6328 21.4052 19.2344 19.3974 19.2344C18.1396 19.2344 17.0302 18.9609 16.0693 18.4141C15.1083 17.8594 14.3701 17.0664 13.8544 16.0352C13.3388 15.0039 13.081 13.8008 13.081 12.4258C13.081 10.2852 13.6396 8.62109 14.7568 7.43359C15.874 6.24609 17.4443 5.65234 19.4677 5.65234C20.7255 5.65234 21.8349 5.92578 22.7958 6.47266C23.7568 7.01953 24.4951 7.80469 25.0107 8.82812C25.5263 9.85156 25.7841 11.0508 25.7841 12.4258Z" fill="white"/>
<path d="M31.5849 12.4258C31.5849 13.7227 31.7958 14.7031 32.2177 15.3672C32.6474 16.0312 33.3427 16.3633 34.3036 16.3633C35.2568 16.3633 35.9404 16.0352 36.3544 15.3789C36.7763 14.7148 36.9872 13.7305 36.9872 12.4258C36.9872 11.1289 36.7763 10.1562 36.3544 9.50781C35.9326 8.85938 35.2411 8.53516 34.2802 8.53516C33.3271 8.53516 32.6396 8.85938 32.2177 9.50781C31.7958 10.1484 31.5849 11.1211 31.5849 12.4258ZM40.6435 12.4258C40.6435 14.5586 40.081 16.2266 38.956 17.4297C37.831 18.6328 36.2646 19.2344 34.2568 19.2344C32.999 19.2344 31.8896 18.9609 30.9286 18.4141C29.9677 17.8594 29.2294 17.0664 28.7138 16.0352C28.1982 15.0039 27.9404 13.8008 27.9404 12.4258C27.9404 10.2852 28.499 8.62109 29.6161 7.43359C30.7333 6.24609 32.3036 5.65234 34.3271 5.65234C35.5849 5.65234 36.6943 5.92578 37.6552 6.47266C38.6161 7.01953 39.3544 7.80469 39.8701 8.82812C40.3857 9.85156 40.6435 11.0508 40.6435 12.4258Z" fill="white"/>
<path d="M47.7451 19.2344C46.206 19.2344 44.9951 18.6367 44.1122 17.4414C43.2372 16.2461 42.7997 14.5898 42.7997 12.4727C42.7997 10.3242 43.2451 8.65234 44.1357 7.45703C45.0341 6.25391 46.2685 5.65234 47.8388 5.65234C49.4872 5.65234 50.7451 6.29297 51.6122 7.57422H51.7294C51.5497 6.59766 51.4599 5.72656 51.4599 4.96094V0.765625H55.0458V19H52.3036L51.6122 17.3008H51.4599C50.6474 18.5898 49.4091 19.2344 47.7451 19.2344ZM48.999 16.3867C49.913 16.3867 50.581 16.1211 51.0029 15.5898C51.4326 15.0586 51.6669 14.1562 51.706 12.8828V12.4961C51.706 11.0898 51.4872 10.082 51.0497 9.47266C50.6201 8.86328 49.9169 8.55859 48.9404 8.55859C48.1435 8.55859 47.5224 8.89844 47.0771 9.57812C46.6396 10.25 46.4208 11.2305 46.4208 12.5195C46.4208 13.8086 46.6435 14.7773 47.0888 15.4258C47.5341 16.0664 48.1708 16.3867 48.999 16.3867Z" fill="white"/>
<path d="M61.6318 12.4258C61.6318 13.7227 61.8427 14.7031 62.2646 15.3672C62.6943 16.0312 63.3896 16.3633 64.3505 16.3633C65.3036 16.3633 65.9872 16.0352 66.4013 15.3789C66.8232 14.7148 67.0341 13.7305 67.0341 12.4258C67.0341 11.1289 66.8232 10.1562 66.4013 9.50781C65.9794 8.85938 65.288 8.53516 64.3271 8.53516C63.374 8.53516 62.6865 8.85938 62.2646 9.50781C61.8427 10.1484 61.6318 11.1211 61.6318 12.4258ZM70.6904 12.4258C70.6904 14.5586 70.1279 16.2266 69.0029 17.4297C67.8779 18.6328 66.3115 19.2344 64.3036 19.2344C63.0458 19.2344 61.9365 18.9609 60.9755 18.4141C60.0146 17.8594 59.2763 17.0664 58.7607 16.0352C58.2451 15.0039 57.9872 13.8008 57.9872 12.4258C57.9872 10.2852 58.5458 8.62109 59.663 7.43359C60.7802 6.24609 62.3505 5.65234 64.374 5.65234C65.6318 5.65234 66.7411 5.92578 67.7021 6.47266C68.663 7.01953 69.4013 7.80469 69.9169 8.82812C70.4326 9.85156 70.6904 11.0508 70.6904 12.4258Z" fill="white"/>
<path d="M80.956 5.65234C81.4404 5.65234 81.8427 5.6875 82.163 5.75781L81.8935 9.10938C81.6044 9.03125 81.2529 8.99219 80.8388 8.99219C79.6982 8.99219 78.8076 9.28516 78.1669 9.87109C77.5341 10.457 77.2177 11.2773 77.2177 12.332V19H73.6435V5.89844H76.3505L76.8779 8.10156H77.0536C77.4599 7.36719 78.0068 6.77734 78.6943 6.33203C79.3896 5.87891 80.1435 5.65234 80.956 5.65234Z" fill="white"/>
<path d="M92.8622 19L92.1708 17.2188H92.0771C91.4755 17.9766 90.8544 18.5039 90.2138 18.8008C89.581 19.0898 88.7529 19.2344 87.7294 19.2344C86.4716 19.2344 85.4794 18.875 84.7529 18.1562C84.0341 17.4375 83.6747 16.4141 83.6747 15.0859C83.6747 13.6953 84.1591 12.6719 85.1279 12.0156C86.1044 11.3516 87.5732 10.9844 89.5341 10.9141L91.8076 10.8438V10.2695C91.8076 8.94141 91.1279 8.27734 89.7685 8.27734C88.7216 8.27734 87.4911 8.59375 86.0771 9.22656L84.8935 6.8125C86.4013 6.02344 88.0732 5.62891 89.9091 5.62891C91.6669 5.62891 93.0146 6.01172 93.9521 6.77734C94.8896 7.54297 95.3583 8.70703 95.3583 10.2695V19H92.8622ZM91.8076 12.9297L90.4247 12.9766C89.3857 13.0078 88.6122 13.1953 88.1044 13.5391C87.5966 13.8828 87.3427 14.4062 87.3427 15.1094C87.3427 16.1172 87.9208 16.6211 89.0771 16.6211C89.9052 16.6211 90.5654 16.3828 91.0576 15.9062C91.5576 15.4297 91.8076 14.7969 91.8076 14.0078V12.9297Z" fill="white"/>
</svg>
