<?xml version="1.0" encoding="UTF-8" standalone="no"?>
<!DOCTYPE svg PUBLIC "-//W3C//DTD SVG 1.1//EN" "http://www.w3.org/Graphics/SVG/1.1/DTD/svg11.dtd">
<svg width="100%" height="100%" viewBox="0 0 100 25" version="1.1" xmlns="http://www.w3.org/2000/svg" xmlns:xlink="http://www.w3.org/1999/xlink" xml:space="preserve" xmlns:serif="http://www.serif.com/" style="fill-rule:evenodd;clip-rule:evenodd;stroke-linejoin:round;stroke-miterlimit:2;">
    <g transform="matrix(2.09144,0,0,2.51128,-20.3623,-9.39661)">
        <path d="M14.002,12.273L11.16,12.273L11.16,3.742L9.736,3.742L9.736,13.697L14.002,13.697L14.002,12.273Z" style="fill:rgb(10,85,130);fill-rule:nonzero;"/>
        <path d="M17.722,3.865C18.144,4.017 18.487,4.274 18.751,4.635C19.014,4.997 19.146,5.41 19.146,5.875L19.146,11.564C19.146,12.154 18.937,12.658 18.519,13.076C18.297,13.298 18.031,13.464 17.722,13.574C17.5,13.656 17.263,13.697 17.013,13.697C16.763,13.697 16.527,13.656 16.304,13.574C15.882,13.421 15.54,13.165 15.276,12.803C15.012,12.442 14.881,12.029 14.881,11.564L14.881,5.875C14.881,5.285 15.09,4.783 15.507,4.369C15.73,4.142 15.996,3.974 16.304,3.865C16.527,3.783 16.763,3.742 17.013,3.742C17.263,3.742 17.5,3.783 17.722,3.865ZM17.722,11.564L17.722,5.875C17.722,5.679 17.654,5.511 17.517,5.371C17.377,5.234 17.209,5.166 17.013,5.166C16.818,5.166 16.651,5.235 16.512,5.374C16.374,5.512 16.304,5.679 16.304,5.875L16.304,11.564C16.304,11.759 16.373,11.927 16.509,12.068C16.65,12.205 16.818,12.273 17.013,12.273C17.209,12.273 17.376,12.204 17.514,12.065C17.653,11.926 17.722,11.759 17.722,11.564Z" style="fill:rgb(10,85,130);fill-rule:nonzero;"/>
        <path d="M24.291,5.875C24.291,5.285 24.083,4.782 23.667,4.366C23.251,3.95 22.748,3.742 22.158,3.742C21.572,3.742 21.07,3.95 20.652,4.366C20.234,4.782 20.025,5.285 20.025,5.875L20.025,11.564C20.025,12.154 20.234,12.657 20.652,13.073C21.07,13.489 21.572,13.697 22.158,13.697C22.748,13.697 23.251,13.489 23.667,13.073C24.083,12.657 24.291,12.154 24.291,11.564L24.291,9.431L22.158,9.431L22.158,10.855L22.873,10.855L22.873,11.564C22.873,11.759 22.803,11.926 22.665,12.065C22.526,12.204 22.357,12.273 22.158,12.273C21.963,12.273 21.796,12.204 21.657,12.065C21.518,11.926 21.449,11.759 21.449,11.564L21.449,5.875C21.449,5.679 21.518,5.512 21.657,5.374C21.796,5.235 21.963,5.166 22.158,5.166C22.357,5.166 22.526,5.235 22.665,5.374C22.803,5.512 22.873,5.679 22.873,5.875L22.873,8.007L24.291,8.007L24.291,5.875Z" style="fill:rgb(10,85,130);fill-rule:nonzero;"/>
        <path d="M28.011,3.865C28.433,4.017 28.776,4.274 29.04,4.635C29.303,4.997 29.435,5.41 29.435,5.875L29.435,11.564C29.435,12.154 29.226,12.658 28.808,13.076C28.586,13.298 28.32,13.464 28.011,13.574C27.789,13.656 27.552,13.697 27.302,13.697C27.052,13.697 26.816,13.656 26.593,13.574C26.172,13.421 25.829,13.165 25.565,12.803C25.301,12.442 25.17,12.029 25.17,11.564L25.17,5.875C25.17,5.285 25.379,4.783 25.797,4.369C26.019,4.142 26.285,3.974 26.593,3.865C26.816,3.783 27.052,3.742 27.302,3.742C27.552,3.742 27.789,3.783 28.011,3.865ZM28.011,11.564L28.011,5.875C28.011,5.679 27.943,5.511 27.806,5.371C27.666,5.234 27.498,5.166 27.302,5.166C27.107,5.166 26.94,5.235 26.801,5.374C26.663,5.512 26.593,5.679 26.593,5.875L26.593,11.564C26.593,11.759 26.662,11.927 26.798,12.068C26.939,12.205 27.107,12.273 27.302,12.273C27.498,12.273 27.665,12.204 27.803,12.065C27.942,11.926 28.011,11.759 28.011,11.564Z" style="fill:rgb(10,85,130);fill-rule:nonzero;"/>
    </g>
    <g transform="matrix(1.64065,0,0,2.66368,-52.4867,-15.9881)">
        <path d="M67.768,15.376L67.768,6.328L68.937,6.328L68.937,6.16L66.194,6.16L66.194,6.328L67.664,6.328L67.664,12.724L67.602,12.724L63.834,6.16L60.863,6.16L60.863,6.328L62.095,6.328L62.095,14.824L60.935,14.824L60.935,15.172L63.71,15.172L63.71,14.824L62.312,14.824L62.312,6.304L62.322,6.304L67.519,15.376L67.768,15.376Z" style="fill:rgb(10,85,130);fill-rule:nonzero;"/>
        <path d="M71.836,10.372L71.836,6.316L73.772,6.316C74.506,6.316 75.024,6.472 75.345,6.796C75.5,6.964 75.624,7.204 75.728,7.528C75.831,7.852 75.904,8.2 75.956,8.572L75.831,6.16L69.227,6.16L69.227,6.316L70.449,6.316L70.449,14.812L69.227,14.812L69.227,15.16L75.956,15.16L76.039,12.148C75.976,13.048 75.769,13.72 75.428,14.164C75.252,14.392 74.983,14.548 74.631,14.656C74.268,14.764 73.865,14.812 73.409,14.812L71.836,14.812L71.836,10.708L72.829,10.708C73.264,10.708 73.585,10.828 73.803,11.056C73.906,11.164 73.989,11.344 74.051,11.584C74.103,11.824 74.144,12.124 74.165,12.484L74.165,8.764C74.155,9.016 74.123,9.22 74.082,9.388C74.041,9.568 73.989,9.712 73.927,9.832C73.792,10.06 73.637,10.216 73.461,10.3L73.285,10.336C73.202,10.348 73.119,10.348 73.026,10.348C72.933,10.36 72.85,10.36 72.757,10.36C72.664,10.372 72.591,10.372 72.529,10.372L71.836,10.372Z" style="fill:rgb(10,85,130);fill-rule:nonzero;"/>
        <path d="M80.241,15.304L82.084,10L83.968,15.304L84.165,15.304L87.073,6.304L87.808,6.304L87.808,6.16L85.945,6.16L85.945,6.304L86.991,6.304L84.672,13.372L82.705,7.828C82.374,8.764 82.053,9.7 81.732,10.624C81.411,11.56 81.09,12.496 80.759,13.444L78.243,6.316L79.579,6.316L79.579,6.16L76.07,6.16L76.07,6.316L76.867,6.316L80.024,15.304L80.241,15.304Z" style="fill:rgb(10,85,130);fill-rule:nonzero;"/>
        <path d="M92.363,8.692L92.363,6.172L92.073,6.172C91.949,6.412 91.846,6.568 91.763,6.652C91.68,6.736 91.608,6.772 91.535,6.76C91.463,6.748 91.38,6.712 91.297,6.628L90.997,6.376C90.883,6.292 90.738,6.208 90.572,6.124C90.396,6.052 90.189,6.016 89.941,6.004C89.278,5.98 88.709,6.244 88.233,6.796C87.777,7.288 87.55,7.936 87.55,8.716C87.55,10.3 88.409,11.236 90.117,11.524C90.376,11.572 90.624,11.608 90.862,11.644C91.1,11.68 91.307,11.74 91.504,11.824C91.701,11.908 91.856,12.016 91.991,12.172C92.125,12.328 92.218,12.544 92.27,12.82C92.353,13.216 92.353,13.576 92.27,13.876C92.187,14.188 92.053,14.452 91.866,14.656C91.68,14.872 91.452,15.028 91.183,15.136C90.914,15.256 90.634,15.292 90.334,15.28C90.034,15.268 89.744,15.184 89.454,15.028C89.154,14.884 88.895,14.668 88.657,14.38C88.419,14.092 88.223,13.72 88.067,13.276C87.912,12.832 87.819,12.316 87.808,11.704L87.477,11.704L87.477,15.004L87.808,15.004C87.974,14.788 88.109,14.644 88.223,14.572C88.336,14.512 88.44,14.488 88.533,14.512C88.626,14.548 88.73,14.608 88.823,14.704C88.916,14.8 89.04,14.896 89.185,14.992C89.32,15.1 89.496,15.184 89.703,15.268C89.899,15.352 90.158,15.388 90.469,15.388C90.831,15.388 91.162,15.316 91.463,15.148C91.763,14.992 92.022,14.788 92.239,14.512C92.456,14.236 92.632,13.912 92.757,13.54C92.881,13.168 92.943,12.76 92.943,12.328C92.943,10.552 92.032,9.532 90.2,9.268L89.682,9.196C89.506,9.172 89.351,9.136 89.206,9.088C89.061,9.052 88.937,8.992 88.823,8.908C88.709,8.836 88.606,8.728 88.523,8.596C88.45,8.5 88.398,8.38 88.357,8.236C88.316,8.104 88.295,7.96 88.285,7.804C88.274,7.66 88.274,7.516 88.295,7.36C88.316,7.216 88.357,7.084 88.409,6.964C88.45,6.88 88.502,6.808 88.564,6.736C88.616,6.664 88.678,6.592 88.75,6.52C89.061,6.22 89.454,6.064 89.941,6.064C90.21,6.064 90.458,6.136 90.676,6.268C90.893,6.4 91.09,6.592 91.266,6.832C91.442,7.072 91.587,7.348 91.711,7.672C91.825,7.996 91.918,8.332 91.991,8.692L92.363,8.692Z" style="fill:rgb(10,85,130);fill-rule:nonzero;"/>
    </g>
    <g transform="matrix(1,0,0,1,-1,0)">
        <rect x="44.284" y="-0" width="1.768" height="25" style="fill:rgb(61,61,61);"/>
    </g>
</svg>
