<svg width="79" height="21" viewBox="0 0 79 21" fill="none" xmlns="http://www.w3.org/2000/svg">
<path fill-rule="evenodd" clip-rule="evenodd" d="M21.9094 7.44379H21.9534L22.0608 8.16156H22.72V0.563904H21.9094V2.74164L21.929 3.11761L21.9631 3.50336H21.8997C21.5123 2.97601 20.9556 2.71234 20.2297 2.71234C19.5331 2.71234 18.9895 2.95648 18.5989 3.44476C18.2083 3.93304 18.0129 4.61829 18.0129 5.50043C18.0129 6.38257 18.2066 7.06293 18.594 7.54144C18.9846 8.01996 19.5298 8.25922 20.2297 8.25922C20.9752 8.25922 21.5351 7.98743 21.9094 7.44379ZM21.5334 7.13129C21.2861 7.43079 20.8857 7.58051 20.3323 7.58051C19.8472 7.58051 19.4794 7.40637 19.2288 7.05804C18.9781 6.70972 18.8528 6.19379 18.8528 5.51019C18.8528 4.83636 18.9781 4.31555 19.2288 3.94769C19.4827 3.5766 19.8472 3.39105 20.3225 3.39105C20.8759 3.39105 21.2779 3.55383 21.5286 3.87933C21.7825 4.2016 21.9094 4.74194 21.9094 5.50043V5.67133C21.9094 6.34192 21.7841 6.82855 21.5334 7.13129ZM1.89966 8.16156V5.19281H3.38892L5.11743 8.16156H6.09888L4.1604 4.95355C5.11743 4.62152 5.59595 3.98352 5.59595 3.03949C5.59595 2.36566 5.38599 1.86108 4.96606 1.52582C4.54938 1.19055 3.90326 1.02289 3.02759 1.02289H1.06958V8.16156H1.89966ZM3.03735 4.47992H1.89966V1.75043H2.97876C3.59399 1.75043 4.03998 1.85461 4.31665 2.06293C4.59662 2.27124 4.73657 2.61145 4.73657 3.08344C4.73657 3.54895 4.59985 3.89886 4.32642 4.13324C4.05298 4.36438 3.62329 4.47992 3.03735 4.47992ZM7.51489 7.53656C7.97388 8.01831 8.59888 8.25922 9.38989 8.25922C9.75122 8.25922 10.0588 8.23157 10.3127 8.17621C10.5699 8.12415 10.8417 8.03625 11.1282 7.91254V7.18988C10.565 7.43079 9.99536 7.55121 9.41919 7.55121C8.87231 7.55121 8.44751 7.38843 8.14478 7.06293C7.84528 6.73743 7.68744 6.2605 7.67114 5.63226H11.3577V5.11957C11.3577 4.39691 11.1624 3.81586 10.7717 3.3764C10.3811 2.93372 9.85052 2.71234 9.17993 2.71234C8.46381 2.71234 7.89252 2.96625 7.46606 3.47406C7.04291 3.98187 6.8313 4.66711 6.8313 5.52972C6.8313 6.38586 7.05914 7.05481 7.51489 7.53656ZM8.13989 3.81097C8.39703 3.53101 8.74048 3.39105 9.17017 3.39105C9.59332 3.39105 9.91888 3.52777 10.1467 3.80121C10.3746 4.07141 10.4885 4.46204 10.4885 4.97308H7.69067C7.73627 4.47827 7.88599 4.09094 8.13989 3.81097ZM16.0354 8.16156L15.8743 7.39984H15.8352C15.5683 7.73511 15.3013 7.96301 15.0344 8.08344C14.7708 8.20062 14.4404 8.25922 14.0432 8.25922C13.5126 8.25922 13.0959 8.1225 12.7932 7.84906C12.4937 7.57562 12.344 7.18665 12.344 6.68207C12.344 5.60132 13.2083 5.03491 14.9368 4.98285L15.845 4.95355V4.62152C15.845 4.2016 15.7538 3.89233 15.5715 3.69379C15.3925 3.49194 15.1044 3.39105 14.7073 3.39105C14.2613 3.39105 13.7568 3.52777 13.1936 3.80121L12.9446 3.18109C13.2083 3.03784 13.4963 2.92554 13.8088 2.84418C14.1246 2.76282 14.4404 2.72211 14.7561 2.72211C15.3941 2.72211 15.8661 2.86371 16.1721 3.14691C16.4814 3.43011 16.636 3.88422 16.636 4.50922V8.16156H16.0354ZM14.2043 7.59027C14.7089 7.59027 15.1044 7.4519 15.3909 7.17523C15.6806 6.89856 15.8254 6.51117 15.8254 6.01312V5.52972L15.0149 5.5639C14.3704 5.58667 13.9048 5.68762 13.6184 5.86664C13.3352 6.04242 13.1936 6.3175 13.1936 6.69183C13.1936 6.9848 13.2815 7.20776 13.4573 7.36078C13.6363 7.51379 13.8853 7.59027 14.2043 7.59027ZM33.8625 8.16156V4.68011C33.8625 4.25366 33.7714 3.93469 33.5891 3.72308C33.4068 3.50824 33.1236 3.40082 32.7395 3.40082C32.2349 3.40082 31.8622 3.54565 31.6213 3.83539C31.3804 4.12512 31.26 4.57104 31.26 5.17328V8.16156H30.4495V4.68011C30.4495 4.25366 30.3583 3.93469 30.176 3.72308C29.9937 3.50824 29.7089 3.40082 29.3215 3.40082C28.8137 3.40082 28.441 3.55383 28.2034 3.8598C27.969 4.16254 27.8518 4.66058 27.8518 5.35394V8.16156H27.0413V2.81H27.7004L27.8323 3.54242H27.8713C28.0244 3.28198 28.2392 3.07855 28.5159 2.93207C28.7958 2.78558 29.1083 2.71234 29.4534 2.71234C30.29 2.71234 30.8369 3.01508 31.094 3.62054H31.1331C31.2925 3.34058 31.5237 3.11926 31.8264 2.95648C32.1292 2.7937 32.4742 2.71234 32.8616 2.71234C33.467 2.71234 33.9195 2.86859 34.219 3.18109C34.5217 3.49036 34.6731 3.98676 34.6731 4.67035V8.16156H33.8625ZM40.3079 7.52679C40.7473 7.03528 40.967 6.35327 40.967 5.4809C40.967 4.63129 40.7457 3.95746 40.303 3.45941C39.8635 2.96136 39.2695 2.71234 38.5208 2.71234C37.746 2.71234 37.1406 2.95648 36.7043 3.44476C36.2681 3.92981 36.05 4.60852 36.05 5.4809C36.05 6.04407 36.1509 6.53558 36.3528 6.95551C36.5546 7.37543 36.8411 7.69769 37.2122 7.9223C37.5833 8.14691 38.0081 8.25922 38.4866 8.25922C39.2613 8.25922 39.8684 8.01508 40.3079 7.52679ZM37.3 7.0434C37.0266 6.6853 36.8899 6.16449 36.8899 5.4809C36.8899 4.79077 37.025 4.27161 37.2952 3.92328C37.5654 3.57495 37.9658 3.40082 38.4963 3.40082C39.0334 3.40082 39.4387 3.57825 39.7122 3.93304C39.9888 4.28461 40.1272 4.80054 40.1272 5.4809C40.1272 6.16772 39.9888 6.69019 39.7122 7.04828C39.4387 7.40308 39.0367 7.58051 38.5061 7.58051C37.9755 7.58051 37.5735 7.40149 37.3 7.0434ZM44.8342 2.71234C45.0718 2.71234 45.2851 2.73187 45.4739 2.77094L45.3616 3.52289C45.1402 3.47406 44.9449 3.44965 44.7756 3.44965C44.3427 3.44965 43.9716 3.62543 43.6624 3.97699C43.3564 4.32855 43.2034 4.76636 43.2034 5.29047V8.16156H42.3928V2.81H43.0618L43.1545 3.80121H43.1936C43.3922 3.45288 43.6314 3.18433 43.9114 2.99554C44.1913 2.80676 44.499 2.71234 44.8342 2.71234ZM46.8606 7.53656C47.3196 8.01831 47.9446 8.25922 48.7356 8.25922C49.0969 8.25922 49.4045 8.23157 49.6584 8.17621C49.9156 8.12415 50.1874 8.03625 50.4739 7.91254V7.18988C49.9107 7.43079 49.3411 7.55121 48.7649 7.55121C48.218 7.55121 47.7932 7.38843 47.4905 7.06293C47.191 6.73743 47.0331 6.2605 47.0168 5.63226H50.7034V5.11957C50.7034 4.39691 50.5081 3.81586 50.1174 3.3764C49.7268 2.93372 49.1962 2.71234 48.5256 2.71234C47.8095 2.71234 47.2382 2.96625 46.8118 3.47406C46.3886 3.98187 46.177 4.66711 46.177 5.52972C46.177 6.38586 46.4048 7.05481 46.8606 7.53656ZM47.4856 3.81097C47.7427 3.53101 48.0862 3.39105 48.5159 3.39105C48.939 3.39105 49.2646 3.52777 49.4924 3.80121C49.7203 4.07141 49.8342 4.46204 49.8342 4.97308H47.0364C47.082 4.47827 47.2317 4.09094 47.4856 3.81097ZM0.694092 14.5168H73.6539V9.84357L78.5872 16.0745L73.6539 20.7477V16.0745H0.694092V14.5168Z" fill="white"/>
</svg>
