<svg width="13" height="13" viewBox="0 0 13 13" fill="none" xmlns="http://www.w3.org/2000/svg">
<path d="M8.92653 7.85535H8.36237L8.16242 7.66253C8.86226 6.84843 9.28359 5.79153 9.28359 4.6418C9.28359 2.0781 7.20549 0 4.6418 0C2.0781 0 0 2.0781 0 4.6418C0 7.20549 2.0781 9.28359 4.6418 9.28359C5.79153 9.28359 6.84843 8.86226 7.66253 8.16242L7.85535 8.36237V8.92653L11.426 12.49L12.49 11.426L8.92653 7.85535V7.85535ZM4.6418 7.85535C2.86363 7.85535 1.42824 6.41996 1.42824 4.6418C1.42824 2.86363 2.86363 1.42824 4.6418 1.42824C6.41996 1.42824 7.85535 2.86363 7.85535 4.6418C7.85535 6.41996 6.41996 7.85535 4.6418 7.85535Z" fill="#1E2D37"/>
</svg>
